{"title":"Blood Monkey (2007) DVDrip x264 Dual Audio [Eng-Hindi] XdesiArse","uid":11321644,"size":821176187,"categoryP":"video","categoryS":"movies","magnet":"?xt=urn:btih:ce379e66029ca1686817213136ac92e991809f3c&amp;dn=Blood+Monkey+%282007%29+DVDrip+x264+Dual+Audio+%5BEng-Hindi%5D+XdesiArse&amp;tr=udp%3A%2F%2Ftracker.openbittorrent.com%3A80&amp;tr=udp%3A%2F%2Fopen.demonii.com%3A1337&amp;tr=udp%3A%2F%2Ftracker.coppersurfer.tk%3A6969&amp;tr=udp%3A%2F%2Fexodus.desync.com%3A6969","seeders":3,"leechers":4,"uploader":"Xdesiars","files":5,"time":1414604041,"description":"Format                                   : Matroska\nFormat version                           : Version 2\nFile size                                : 776 MiB\nDuration                                 : 1h 28mn\nOverall bit rate                         : 1 226 Kbps\nMovie name                               : Blood Monkey (2007) by XdesiArsenal [ExD-XMR]\nEncoded date                             : UTC 2014-10-28 19:42:06\nWriting application                      : mkvmerge v5.0.1 ('Es ist Sommer') built on Nov 23 2011 20:48:57\nWriting library                          : libebml v1.2.2 + libmatroska v1.3.0\n\nVideo\nID                                       : 1\nFormat                                   : MPEG-4 Visual\nFormat profile                           : Advanced Simple@L5\nFormat settings, BVOP                    : Yes\nFormat settings, QPel                    : No\nFormat settings, GMC                     : No warppoints\nFormat settings, Matrix                  : Default (H.263)\nCodec ID                                 : V_MS/VFW/FOURCC / XVID\nCodec ID/Hint                            : XviD\nDuration                                 : 1h 28mn\nBit rate                                 : 882 Kbps\nWidth                                    : 576 pixels\nHeight                                   : 416 pixels\nDisplay aspect ratio                     : 1.385\nFrame rate mode                          : Constant\nFrame rate                               : 23.976 fps\nColor space                              : YUV\nChroma subsampling                       : 4:2:0\nBit depth                                : 8 bits\nScan type                                : Progressive\nCompression mode                         : Lossy\nBits/(Pixel*Frame)                       : 0.153\nStream size                              : 558 MiB (72%)\nTitle                                    : Blood Monkey (2007) by XdesiArsenal [ExD-XMR]\nWriting library                          : XviD 1.1.2 (UTC 2006-11-01)\nLanguage                                 : English\nDefault                                  : No\nForced                                   : No\n\nAudio #1\nID                                       : 2\nFormat                                   : AC-3\nFormat/Info                              : Audio Coding 3\nMode extension                           : CM (complete main)\nFormat settings, Endianness              : Big\nMuxing mode                              : Header stripping\nCodec ID                                 : A_AC3\nDuration                                 : 1h 28mn\nBit rate mode                            : Constant\nBit rate                                 : 160 Kbps\nChannel(s)                               : 2 channels\nChannel positions                        : Front: L R\nSampling rate                            : 48.0 KHz\nBit depth                                : 16 bits\nCompression mode                         : Lossy\nStream size                              : 101 MiB (13%)\nTitle                                    : XdesiArsenal\nLanguage                                 : English\nDefault                                  : Yes\nForced                                   : No\n\nAudio #2\nID                                       : 3\nFormat                                   : AC-3\nFormat/Info                              : Audio Coding 3\nMode extension                           : CM (complete main)\nFormat settings, Endianness              : Big\nMuxing mode                              : Header stripping\nCodec ID                                 : A_AC3\nDuration                                 : 1h 28mn\nBit rate mode                            : Constant\nBit rate                                 : 160 Kbps\nChannel(s)                               : 2 channels\nChannel positions                        : Front: L R\nSampling rate                            : 48.0 KHz\nBit depth                                : 16 bits\nCompression mode                         : Lossy\nDelay relative to video                  : 2s 300ms\nStream size                              : 101 MiB (13%)\nTitle                                    : XdesiArsenal\nLanguage                                 : Hindi\nDefault                                  : No\nForced                                   : No","torrent":{"xt":"urn:btih:ce379e66029ca1686817213136ac92e991809f3c","amp;dn":"Blood+Monkey+%282007%29+DVDrip+x264+Dual+Audio+%5BEng-Hindi%5D+XdesiArse","amp;tr":["udp%3A%2F%2Ftracker.openbittorrent.com%3A80","udp%3A%2F%2Fopen.demonii.com%3A1337","udp%3A%2F%2Ftracker.coppersurfer.tk%3A6969","udp%3A%2F%2Fexodus.desync.com%3A6969"],"infoHash":"ce379e66029ca1686817213136ac92e991809f3c","infoHashBuffer":{"type":"Buffer","data":[206,55,158,102,2,156,161,104,104,23,33,49,54,172,146,233,145,128,159,60]},"announce":[],"urlList":[]}}